<svg width="40" height="40" viewBox="0 0 40 40" fill="none" xmlns="http://www.w3.org/2000/svg">
<path d="M4.57208 39.3334C3.4588 39.3334 2.53 38.9612 1.78566 38.2169C1.04133 37.4725 0.668359 36.5429 0.666748 35.428V4.57202C0.666748 3.45874 1.03972 2.52994 1.78566 1.7856C2.53161 1.04127 3.46042 0.668298 4.57208 0.666687H35.4305C36.5422 0.666687 37.471 1.03966 38.2169 1.7856C38.9629 2.53155 39.335 3.46035 39.3334 4.57202V35.4304C39.3334 36.5421 38.9613 37.4709 38.2169 38.2169C37.4726 38.9628 36.543 39.335 35.4281 39.3334H4.57208ZM4.57208 36.9167H35.4305C35.8011 36.9167 36.1418 36.762 36.4528 36.4527C36.7637 36.1434 36.9184 35.8018 36.9167 35.428V4.57202C36.9167 4.19985 36.7621 3.8583 36.4528 3.54735C36.1434 3.23641 35.8019 3.08174 35.4281 3.08335H4.57208C4.19992 3.08335 3.85836 3.23802 3.54741 3.54735C3.23647 3.85669 3.0818 4.19824 3.08341 4.57202V35.4304C3.08341 35.801 3.23808 36.1417 3.54741 36.4527C3.85675 36.7636 4.1975 36.9183 4.56966 36.9167M9.12508 30.875H31.2472L24.4153 21.7642L18.0957 29.7585L13.8666 24.6473L9.12508 30.875Z" fill="#F5F5F5"/>
</svg>
