<svg width="125" height="39" viewBox="0 0 125 39" fill="none" xmlns="http://www.w3.org/2000/svg">
<path d="M0.8125 10.1333V7.75H11.8264V10.1333H7.67361V24H4.96528V10.1333H0.8125ZM11.9488 24V13.1667H14.2599V15.0806C14.6451 14.4546 15.1386 13.9611 15.7405 13.6C16.3423 13.2389 17.0586 13.0583 17.8891 13.0583L18.4669 15.4236C18.2382 15.3514 17.9794 15.3153 17.6905 15.3153C16.7275 15.3153 15.9511 15.6222 15.3613 16.2361C14.7836 16.85 14.4947 17.7287 14.4947 18.8722V24H11.9488ZM24.3282 24.2889C23.5698 24.2889 22.8596 24.1023 22.1976 23.7292C21.5356 23.356 20.9939 22.8144 20.5726 22.1042C20.1634 21.394 19.9587 20.5333 19.9587 19.5222V13.1667H22.5046V19.1792C22.5046 19.9134 22.7212 20.5634 23.1546 21.1292C23.5999 21.6829 24.2198 21.9597 25.0143 21.9597C25.6643 21.9597 26.2421 21.725 26.7476 21.2556C27.2652 20.7861 27.524 20.112 27.524 19.2333V13.1667H30.0698V24H27.7407V22.5556C27.3434 23.1213 26.8439 23.5546 26.2421 23.8556C25.6522 24.1444 25.0143 24.2889 24.3282 24.2889ZM38.3782 24.2889C37.2106 24.2889 36.1694 24.0361 35.2546 23.5306C34.3398 23.025 33.6236 22.3329 33.106 21.4542C32.6004 20.5755 32.3477 19.5824 32.3477 18.475C32.3477 17.4157 32.5944 16.4648 33.0879 15.6222C33.5935 14.7796 34.2676 14.1116 35.1102 13.6181C35.9648 13.1245 36.9037 12.8778 37.9268 12.8778C38.962 12.8778 39.8949 13.1185 40.7254 13.6C41.568 14.0815 42.2361 14.7375 42.7296 15.5681C43.2231 16.3866 43.4699 17.3194 43.4699 18.3667V19.3236H36.6268C36.3259 19.3236 36.025 19.3116 35.724 19.2875C35.4231 19.2514 35.1222 19.2093 34.8213 19.1611C34.9657 19.9917 35.3629 20.6838 36.0129 21.2375C36.675 21.7912 37.4815 22.0681 38.4324 22.0681C39.1185 22.0681 39.7444 21.9236 40.3102 21.6347C40.8759 21.3338 41.3393 20.9486 41.7004 20.4792L42.3143 23.0069C41.7847 23.4282 41.1828 23.7472 40.5088 23.9639C39.8347 24.1806 39.1245 24.2889 38.3782 24.2889ZM34.7671 17.5361C35.393 17.4157 36.0129 17.3556 36.6268 17.3556H39.3713C39.6722 17.3556 39.9611 17.3676 40.2379 17.3917C40.5268 17.4157 40.8037 17.4458 41.0685 17.4819C40.8879 16.7477 40.5088 16.1519 39.931 15.6944C39.3652 15.225 38.6912 14.9903 37.9088 14.9903C37.1504 14.9903 36.4824 15.231 35.9046 15.7125C35.3268 16.194 34.9477 16.8019 34.7671 17.5361ZM50.788 24.2889C49.7167 24.2889 48.7417 24.0361 47.863 23.5306C46.9843 23.013 46.2862 22.3208 45.7686 21.4542C45.251 20.5875 44.9922 19.6306 44.9922 18.5833C44.9922 17.5241 45.251 16.5671 45.7686 15.7125C46.2862 14.8458 46.9843 14.1597 47.863 13.6542C48.7417 13.1366 49.7167 12.8778 50.788 12.8778C51.5464 12.8778 52.2626 13.0102 52.9366 13.275C53.6227 13.5278 54.2246 13.8889 54.7422 14.3583L54.038 17.1931C53.7371 16.6514 53.3098 16.188 52.7561 15.8028C52.2024 15.4056 51.5644 15.2069 50.8422 15.2069C50.2163 15.2069 49.6445 15.3634 49.1269 15.6764C48.6214 15.9773 48.2181 16.3806 47.9172 16.8861C47.6283 17.3917 47.4839 17.9574 47.4839 18.5833C47.4839 19.1972 47.6283 19.763 47.9172 20.2806C48.2181 20.7861 48.6214 21.1954 49.1269 21.5083C49.6445 21.8093 50.2163 21.9597 50.8422 21.9597C51.5644 21.9597 52.2024 21.7671 52.7561 21.3819C53.3098 20.9968 53.7371 20.5273 54.038 19.9736L54.7422 22.8083C54.2246 23.2778 53.6227 23.6449 52.9366 23.9097C52.2626 24.1625 51.5464 24.2889 50.788 24.2889ZM61.4865 24.2167C60.4995 24.2167 59.5967 23.9639 58.7782 23.4583C57.9596 22.9528 57.3036 22.2727 56.8101 21.4181C56.3286 20.5634 56.0879 19.6185 56.0879 18.5833C56.0879 17.5481 56.3286 16.6032 56.8101 15.7486C57.3036 14.894 57.9596 14.2139 58.7782 13.7083C59.5967 13.2028 60.4995 12.95 61.4865 12.95C62.2087 12.95 62.8768 13.0824 63.4907 13.3472C64.1166 13.6 64.6522 13.9611 65.0976 14.4306V13.1667H67.3546V24H65.0976V22.7361C64.6522 23.1935 64.1166 23.5546 63.4907 23.8194C62.8768 24.0843 62.2087 24.2167 61.4865 24.2167ZM61.8115 21.9417C62.4134 21.9417 62.961 21.7912 63.4546 21.4903C63.9601 21.1894 64.3573 20.7861 64.6462 20.2806C64.9472 19.775 65.0976 19.2093 65.0976 18.5833C65.0976 17.9694 64.9472 17.4097 64.6462 16.9042C64.3573 16.3866 63.9661 15.9773 63.4726 15.6764C62.9791 15.3755 62.4254 15.225 61.8115 15.225C61.2097 15.225 60.6559 15.3755 60.1504 15.6764C59.6569 15.9773 59.2597 16.3806 58.9587 16.8861C58.6698 17.3917 58.5254 17.9574 58.5254 18.5833C58.5254 19.1972 58.6698 19.763 58.9587 20.2806C59.2597 20.7861 59.6569 21.1894 60.1504 21.4903C60.6439 21.7912 61.1976 21.9417 61.8115 21.9417ZM73.4489 24.2889C72.7989 24.2889 72.1248 24.1806 71.4266 23.9639C70.7405 23.7352 70.1808 23.3921 69.7475 22.9347L70.3975 20.3889C70.7466 20.9065 71.21 21.3398 71.7878 21.6889C72.3655 22.038 72.9674 22.2125 73.5933 22.2125C74.1109 22.2125 74.4901 22.0981 74.7308 21.8694C74.9716 21.6407 75.0919 21.3639 75.0919 21.0389C75.0919 20.6778 74.9655 20.413 74.7128 20.2444C74.46 20.0639 74.2192 19.9315 73.9905 19.8472L72.4919 19.2875C72.191 19.1671 71.8359 18.9986 71.4266 18.7819C71.0294 18.5532 70.6804 18.2343 70.3794 17.825C70.0785 17.4157 69.928 16.8801 69.928 16.2181C69.928 15.6162 70.0725 15.0625 70.3614 14.5569C70.6623 14.0514 71.0896 13.6481 71.6433 13.3472C72.197 13.0343 72.8591 12.8778 73.6294 12.8778C74.2915 12.8778 74.9354 12.9921 75.5614 13.2208C76.1993 13.4495 76.6989 13.7565 77.06 14.1417L76.428 16.6514C76.079 16.1218 75.6396 15.7065 75.11 15.4056C74.5924 15.1046 74.0748 14.9542 73.5572 14.9542C73.1118 14.9542 72.7748 15.0625 72.5461 15.2792C72.3174 15.4958 72.203 15.7486 72.203 16.0375C72.203 16.2542 72.2813 16.4588 72.4378 16.6514C72.5942 16.8319 72.847 16.9884 73.1961 17.1208L74.6225 17.6625C74.9595 17.7829 75.3387 17.9574 75.76 18.1861C76.1933 18.4148 76.5665 18.7398 76.8794 19.1611C77.1924 19.5824 77.3489 20.1542 77.3489 20.8764C77.3489 21.8875 76.9817 22.712 76.2475 23.35C75.5253 23.9759 74.5924 24.2889 73.4489 24.2889ZM80.9295 24V15.225H78.6906V13.1667H80.9837V9.55555H83.4212V13.1667H85.8406V15.225H83.4753V24H80.9295Z" fill="white" fill-opacity="0.87"/>
<path d="M3 36H42" stroke="#1D57C2" stroke-width="5" stroke-linecap="round"/>
</svg>
